<svg viewBox="0 0 32 32" fill="none" xmlns="http://www.w3.org/2000/svg">

<style>
  path {
    fill: #273240;
  }
  @media (prefers-color-scheme: dark) {
    path { fill: #ffffff; }
  }
</style>

<path d="M16.5,16.31l-.37,2a13.83,13.83,0,0,1-2.85,6.64A8.59,8.59,0,0,1,6.77,28a4.29,4.29,0,0,1-2.88-.92,3,3,0,0,1-1.09-2.4,4.21,4.21,0,0,1,1.94-3.42,7.41,7.41,0,0,1,4.57-1.46l-.11.55a4,4,0,0,0-2.87,1.2,3.86,3.86,0,0,0-1.21,2.84A2.37,2.37,0,0,0,6,26.23,3.18,3.18,0,0,0,8.15,27a3.44,3.44,0,0,0,3-1.58,16.23,16.23,0,0,0,1.56-5.09l.81-4H13a4.6,4.6,0,0,0-1.88.45,1.49,1.49,0,0,1,0-.25c0-.65.87-1.07,2.6-1.27l1.59-8-.39,0h-1a5.38,5.38,0,0,0-4,1.42,4,4,0,0,0-1.31,2.79,2.13,2.13,0,0,0,.71,1.64,2.48,2.48,0,0,0,1.76.66,1.79,1.79,0,0,0,.54-.09l0,.51a5.27,5.27,0,0,1-1.36.2,4.28,4.28,0,0,1-2.72-.87,2.59,2.59,0,0,1-1.11-2.1q0-2.41,3.06-3.86A19.21,19.21,0,0,1,17.66,6h4.09a20.88,20.88,0,0,0,5.18-.44,2.72,2.72,0,0,0,2-1.58.73.73,0,0,1,.29.53A3.43,3.43,0,0,1,28.6,6,4.83,4.83,0,0,1,27.49,7.4a6.34,6.34,0,0,1-3.64.78c-.5,0-1,0-1.42-.06L20.56,8l-1.93-.17-.41,0L16.8,14.86h.8l1.11,0,2-.06c1.52,0,2.53-.39,3-1.16a.63.63,0,0,1,.27.49,2.19,2.19,0,0,1-.43,1c-.57.92-1.65,1.38-3.25,1.38-.59,0-1.49,0-2.71-.13l-.91,0Z"/>

</svg>